# Original Wee horse; generated by make-horse.mjs
mtllib horse.mtl
o body
usemtl coat
v 0.0000 2.1500 0.0000
v 0.0000 2.1500 0.0000
v 0.0000 2.1500 0.0000
v 0.0000 2.1500 0.0000
v 0.0000 2.1500 0.0000
v 0.0000 2.1500 0.0000
v 0.0000 2.1500 0.0000
v 0.0000 2.1500 0.0000
v 0.6760 2.0450 0.0000
v 0.4780 2.0450 0.1787
v 0.0000 2.0450 0.2527
v -0.4780 2.0450 0.1787
v -0.6760 2.0450 0.0000
v -0.4780 2.0450 -0.1787
v -0.0000 2.0450 -0.2527
v 0.4780 2.0450 -0.1787
v 1.0937 1.7700 0.0000
v 0.7734 1.7700 0.2892
v 0.0000 1.7700 0.4090
v -0.7734 1.7700 0.2892
v -1.0937 1.7700 0.0000
v -0.7734 1.7700 -0.2892
v -0.0000 1.7700 -0.4090
v 0.7734 1.7700 -0.2892
v 1.0937 1.4300 0.0000
v 0.7734 1.4300 0.2892
v 0.0000 1.4300 0.4090
v -0.7734 1.4300 0.2892
v -1.0937 1.4300 0.0000
v -0.7734 1.4300 -0.2892
v -0.0000 1.4300 -0.4090
v 0.7734 1.4300 -0.2892
v 0.6760 1.1550 0.0000
v 0.4780 1.1550 0.1787
v 0.0000 1.1550 0.2527
v -0.4780 1.1550 0.1787
v -0.6760 1.1550 0.0000
v -0.4780 1.1550 -0.1787
v -0.0000 1.1550 -0.2527
v 0.4780 1.1550 -0.1787
v 0.0000 1.0500 0.0000
v 0.0000 1.0500 0.0000
v 0.0000 1.0500 0.0000
v -0.0000 1.0500 0.0000
v -0.0000 1.0500 0.0000
v -0.0000 1.0500 -0.0000
v -0.0000 1.0500 -0.0000
v 0.0000 1.0500 -0.0000
f 1 9 10
f 1 10 2
f 2 10 11
f 2 11 3
f 3 11 12
f 3 12 4
f 4 12 13
f 4 13 5
f 5 13 14
f 5 14 6
f 6 14 15
f 6 15 7
f 7 15 16
f 7 16 8
f 8 16 9
f 8 9 1
f 9 17 18
f 9 18 10
f 10 18 19
f 10 19 11
f 11 19 20
f 11 20 12
f 12 20 21
f 12 21 13
f 13 21 22
f 13 22 14
f 14 22 23
f 14 23 15
f 15 23 24
f 15 24 16
f 16 24 17
f 16 17 9
f 17 25 26
f 17 26 18
f 18 26 27
f 18 27 19
f 19 27 28
f 19 28 20
f 20 28 29
f 20 29 21
f 21 29 30
f 21 30 22
f 22 30 31
f 22 31 23
f 23 31 32
f 23 32 24
f 24 32 25
f 24 25 17
f 25 33 34
f 25 34 26
f 26 34 35
f 26 35 27
f 27 35 36
f 27 36 28
f 28 36 37
f 28 37 29
f 29 37 38
f 29 38 30
f 30 38 39
f 30 39 31
f 31 39 40
f 31 40 32
f 32 40 33
f 32 33 25
f 33 41 42
f 33 42 34
f 34 42 43
f 34 43 35
f 35 43 44
f 35 44 36
f 36 44 45
f 36 45 37
f 37 45 46
f 37 46 38
f 38 46 47
f 38 47 39
f 39 47 48
f 39 48 40
f 40 48 41
f 40 41 33
o chest
usemtl coat
v 0.7200 2.3400 0.0000
v 0.7200 2.3400 0.0000
v 0.7200 2.3400 0.0000
v 0.7200 2.3400 0.0000
v 0.7200 2.3400 0.0000
v 0.7200 2.3400 0.0000
v 0.7200 2.3400 0.0000
v 0.7200 2.3400 0.0000
v 1.0021 2.2178 0.0000
v 0.9195 2.2178 0.1746
v 0.7200 2.2178 0.2469
v 0.5205 2.2178 0.1746
v 0.4379 2.2178 0.0000
v 0.5205 2.2178 -0.1746
v 0.7200 2.2178 -0.2469
v 0.9195 2.2178 -0.1746
v 1.1765 1.8978 0.0000
v 1.0428 1.8978 0.2824
v 0.7200 1.8978 0.3994
v 0.3972 1.8978 0.2824
v 0.2635 1.8978 0.0000
v 0.3972 1.8978 -0.2824
v 0.7200 1.8978 -0.3994
v 1.0428 1.8978 -0.2824
v 1.1765 1.5022 0.0000
v 1.0428 1.5022 0.2824
v 0.7200 1.5022 0.3994
v 0.3972 1.5022 0.2824
v 0.2635 1.5022 0.0000
v 0.3972 1.5022 -0.2824
v 0.7200 1.5022 -0.3994
v 1.0428 1.5022 -0.2824
v 1.0021 1.1822 0.0000
v 0.9195 1.1822 0.1746
v 0.7200 1.1822 0.2469
v 0.5205 1.1822 0.1746
v 0.4379 1.1822 0.0000
v 0.5205 1.1822 -0.1746
v 0.7200 1.1822 -0.2469
v 0.9195 1.1822 -0.1746
v 0.7200 1.0600 0.0000
v 0.7200 1.0600 0.0000
v 0.7200 1.0600 0.0000
v 0.7200 1.0600 0.0000
v 0.7200 1.0600 0.0000
v 0.7200 1.0600 -0.0000
v 0.7200 1.0600 -0.0000
v 0.7200 1.0600 -0.0000
f 49 57 58
f 49 58 50
f 50 58 59
f 50 59 51
f 51 59 60
f 51 60 52
f 52 60 61
f 52 61 53
f 53 61 62
f 53 62 54
f 54 62 63
f 54 63 55
f 55 63 64
f 55 64 56
f 56 64 57
f 56 57 49
f 57 65 66
f 57 66 58
f 58 66 67
f 58 67 59
f 59 67 68
f 59 68 60
f 60 68 69
f 60 69 61
f 61 69 70
f 61 70 62
f 62 70 71
f 62 71 63
f 63 71 72
f 63 72 64
f 64 72 65
f 64 65 57
f 65 73 74
f 65 74 66
f 66 74 75
f 66 75 67
f 67 75 76
f 67 76 68
f 68 76 77
f 68 77 69
f 69 77 78
f 69 78 70
f 70 78 79
f 70 79 71
f 71 79 80
f 71 80 72
f 72 80 73
f 72 73 65
f 73 81 82
f 73 82 74
f 74 82 83
f 74 83 75
f 75 83 84
f 75 84 76
f 76 84 85
f 76 85 77
f 77 85 86
f 77 86 78
f 78 86 87
f 78 87 79
f 79 87 88
f 79 88 80
f 80 88 81
f 80 81 73
f 81 89 90
f 81 90 82
f 82 90 91
f 82 91 83
f 83 91 92
f 83 92 84
f 84 92 93
f 84 93 85
f 85 93 94
f 85 94 86
f 86 94 95
f 86 95 87
f 87 95 96
f 87 96 88
f 88 96 89
f 88 89 81
o neck
usemtl coat
v 1.3748 3.0244 0.0000
v 1.3748 3.0244 0.0000
v 1.3748 3.0244 0.0000
v 1.3748 3.0244 0.0000
v 1.3748 3.0244 0.0000
v 1.3748 3.0244 0.0000
v 1.3748 3.0244 0.0000
v 1.3748 3.0244 0.0000
v 1.4948 2.7888 0.0000
v 1.4398 2.8134 0.1247
v 1.3070 2.8727 0.1763
v 1.1742 2.9320 0.1247
v 1.1192 2.9566 0.0000
v 1.1742 2.9320 -0.1247
v 1.3070 2.8727 -0.1763
v 1.4398 2.8134 -0.1247
v 1.4336 2.3397 0.0000
v 1.3445 2.3795 0.2017
v 1.1296 2.4755 0.2853
v 0.9147 2.5715 0.2017
v 0.8257 2.6112 0.0000
v 0.9147 2.5715 -0.2017
v 1.1296 2.4755 -0.2853
v 1.3445 2.3795 -0.2017
v 1.2143 1.8488 0.0000
v 1.1253 1.8885 0.2017
v 0.9104 1.9845 0.2853
v 0.6955 2.0805 0.2017
v 0.6064 2.1203 0.0000
v 0.6955 2.0805 -0.2017
v 0.9104 1.9845 -0.2853
v 1.1253 1.8885 -0.2017
v 0.9208 1.5034 0.0000
v 0.8658 1.5280 0.1247
v 0.7330 1.5873 0.1763
v 0.6002 1.6466 0.1247
v 0.5452 1.6712 0.0000
v 0.6002 1.6466 -0.1247
v 0.7330 1.5873 -0.1763
v 0.8658 1.5280 -0.1247
v 0.6652 1.4356 0.0000
v 0.6652 1.4356 0.0000
v 0.6652 1.4356 0.0000
v 0.6652 1.4356 0.0000
v 0.6652 1.4356 0.0000
v 0.6652 1.4356 -0.0000
v 0.6652 1.4356 -0.0000
v 0.6652 1.4356 -0.0000
f 97 105 106
f 97 106 98
f 98 106 107
f 98 107 99
f 99 107 108
f 99 108 100
f 100 108 109
f 100 109 101
f 101 109 110
f 101 110 102
f 102 110 111
f 102 111 103
f 103 111 112
f 103 112 104
f 104 112 105
f 104 105 97
f 105 113 114
f 105 114 106
f 106 114 115
f 106 115 107
f 107 115 116
f 107 116 108
f 108 116 117
f 108 117 109
f 109 117 118
f 109 118 110
f 110 118 119
f 110 119 111
f 111 119 120
f 111 120 112
f 112 120 113
f 112 113 105
f 113 121 122
f 113 122 114
f 114 122 123
f 114 123 115
f 115 123 124
f 115 124 116
f 116 124 125
f 116 125 117
f 117 125 126
f 117 126 118
f 118 126 127
f 118 127 119
f 119 127 128
f 119 128 120
f 120 128 121
f 120 121 113
f 121 129 130
f 121 130 122
f 122 130 131
f 122 131 123
f 123 131 132
f 123 132 124
f 124 132 133
f 124 133 125
f 125 133 134
f 125 134 126
f 126 134 135
f 126 135 127
f 127 135 136
f 127 136 128
f 128 136 129
f 128 129 121
f 129 137 138
f 129 138 130
f 130 138 139
f 130 139 131
f 131 139 140
f 131 140 132
f 132 140 141
f 132 141 133
f 133 141 142
f 133 142 134
f 134 142 143
f 134 143 135
f 135 143 144
f 135 144 136
f 136 144 137
f 136 137 129
o head
usemtl coat
v 1.5596 3.2540 0.0000
v 1.5596 3.2540 0.0000
v 1.5596 3.2540 0.0000
v 1.5596 3.2540 0.0000
v 1.5596 3.2540 0.0000
v 1.5596 3.2540 0.0000
v 1.5596 3.2540 0.0000
v 1.5596 3.2540 0.0000
v 1.8247 3.1418 0.0000
v 1.7437 3.1582 0.1081
v 1.5482 3.1979 0.1528
v 1.3527 3.2375 0.1081
v 1.2717 3.2539 0.0000
v 1.3527 3.2375 -0.1081
v 1.5482 3.1979 -0.1528
v 1.7437 3.1582 -0.1081
v 1.9658 2.9602 0.0000
v 1.8348 2.9867 0.1748
v 1.5184 3.0509 0.2473
v 1.2021 3.1150 0.1748
v 1.0710 3.1416 0.0000
v 1.2021 3.1150 -0.1748
v 1.5184 3.0509 -0.2473
v 1.8348 2.9867 -0.1748
v 1.9290 2.7784 0.0000
v 1.7979 2.8050 0.1748
v 1.4816 2.8691 0.2473
v 1.1652 2.9333 0.1748
v 1.0342 2.9598 0.0000
v 1.1652 2.9333 -0.1748
v 1.4816 2.8691 -0.2473
v 1.7979 2.8050 -0.1748
v 1.7283 2.6661 0.0000
v 1.6473 2.6825 0.1081
v 1.4518 2.7221 0.1528
v 1.2563 2.7618 0.1081
v 1.1753 2.7782 0.0000
v 1.2563 2.7618 -0.1081
v 1.4518 2.7221 -0.1528
v 1.6473 2.6825 -0.1081
v 1.4404 2.6660 0.0000
v 1.4404 2.6660 0.0000
v 1.4404 2.6660 0.0000
v 1.4404 2.6660 0.0000
v 1.4404 2.6660 0.0000
v 1.4404 2.6660 -0.0000
v 1.4404 2.6660 -0.0000
v 1.4404 2.6660 -0.0000
f 145 153 154
f 145 154 146
f 146 154 155
f 146 155 147
f 147 155 156
f 147 156 148
f 148 156 157
f 148 157 149
f 149 157 158
f 149 158 150
f 150 158 159
f 150 159 151
f 151 159 160
f 151 160 152
f 152 160 153
f 152 153 145
f 153 161 162
f 153 162 154
f 154 162 163
f 154 163 155
f 155 163 164
f 155 164 156
f 156 164 165
f 156 165 157
f 157 165 166
f 157 166 158
f 158 166 167
f 158 167 159
f 159 167 168
f 159 168 160
f 160 168 161
f 160 161 153
f 161 169 170
f 161 170 162
f 162 170 171
f 162 171 163
f 163 171 172
f 163 172 164
f 164 172 173
f 164 173 165
f 165 173 174
f 165 174 166
f 166 174 175
f 166 175 167
f 167 175 176
f 167 176 168
f 168 176 169
f 168 169 161
f 169 177 178
f 169 178 170
f 170 178 179
f 170 179 171
f 171 179 180
f 171 180 172
f 172 180 181
f 172 181 173
f 173 181 182
f 173 182 174
f 174 182 183
f 174 183 175
f 175 183 184
f 175 184 176
f 176 184 177
f 176 177 169
f 177 185 186
f 177 186 178
f 178 186 187
f 178 187 179
f 179 187 188
f 179 188 180
f 180 188 189
f 180 189 181
f 181 189 190
f 181 190 182
f 182 190 191
f 182 191 183
f 183 191 192
f 183 192 184
f 184 192 185
f 184 185 177
o muzzle
usemtl muzzle
v 1.8857 3.0254 0.0000
v 1.8857 3.0254 0.0000
v 1.8857 3.0254 0.0000
v 1.8857 3.0254 0.0000
v 1.8857 3.0254 0.0000
v 1.8857 3.0254 0.0000
v 1.8857 3.0254 0.0000
v 1.8857 3.0254 0.0000
v 2.0728 2.9427 0.0000
v 2.0155 2.9543 0.0998
v 1.8770 2.9824 0.1411
v 1.7385 3.0104 0.0998
v 1.6811 3.0221 0.0000
v 1.7385 3.0104 -0.0998
v 1.8770 2.9824 -0.1411
v 2.0155 2.9543 -0.0998
v 2.1710 2.8054 0.0000
v 2.0782 2.8242 0.1614
v 1.8541 2.8697 0.2283
v 1.6300 2.9151 0.1614
v 1.5372 2.9339 0.0000
v 1.6300 2.9151 -0.1614
v 1.8541 2.8697 -0.2283
v 2.0782 2.8242 -0.1614
v 2.1428 2.6661 0.0000
v 2.0500 2.6849 0.1614
v 1.8259 2.7303 0.2283
v 1.6018 2.7758 0.1614
v 1.5090 2.7946 0.0000
v 1.6018 2.7758 -0.1614
v 1.8259 2.7303 -0.2283
v 2.0500 2.6849 -0.1614
v 1.9989 2.5779 0.0000
v 1.9415 2.5896 0.0998
v 1.8030 2.6176 0.1411
v 1.6645 2.6457 0.0998
v 1.6072 2.6573 0.0000
v 1.6645 2.6457 -0.0998
v 1.8030 2.6176 -0.1411
v 1.9415 2.5896 -0.0998
v 1.7943 2.5746 0.0000
v 1.7943 2.5746 0.0000
v 1.7943 2.5746 0.0000
v 1.7943 2.5746 0.0000
v 1.7943 2.5746 0.0000
v 1.7943 2.5746 -0.0000
v 1.7943 2.5746 -0.0000
v 1.7943 2.5746 -0.0000
f 193 201 202
f 193 202 194
f 194 202 203
f 194 203 195
f 195 203 204
f 195 204 196
f 196 204 205
f 196 205 197
f 197 205 206
f 197 206 198
f 198 206 207
f 198 207 199
f 199 207 208
f 199 208 200
f 200 208 201
f 200 201 193
f 201 209 210
f 201 210 202
f 202 210 211
f 202 211 203
f 203 211 212
f 203 212 204
f 204 212 213
f 204 213 205
f 205 213 214
f 205 214 206
f 206 214 215
f 206 215 207
f 207 215 216
f 207 216 208
f 208 216 209
f 208 209 201
f 209 217 218
f 209 218 210
f 210 218 219
f 210 219 211
f 211 219 220
f 211 220 212
f 212 220 221
f 212 221 213
f 213 221 222
f 213 222 214
f 214 222 223
f 214 223 215
f 215 223 224
f 215 224 216
f 216 224 217
f 216 217 209
f 217 225 226
f 217 226 218
f 218 226 227
f 218 227 219
f 219 227 228
f 219 228 220
f 220 228 229
f 220 229 221
f 221 229 230
f 221 230 222
f 222 230 231
f 222 231 223
f 223 231 232
f 223 232 224
f 224 232 225
f 224 225 217
f 225 233 234
f 225 234 226
f 226 234 235
f 226 235 227
f 227 235 236
f 227 236 228
f 228 236 237
f 228 237 229
f 229 237 238
f 229 238 230
f 230 238 239
f 230 239 231
f 231 239 240
f 231 240 232
f 232 240 233
f 232 233 225
o mane
usemtl dark
v 1.0536 3.0474 0.0000
v 1.0536 3.0474 0.0000
v 1.0536 3.0474 0.0000
v 1.0536 3.0474 0.0000
v 1.0536 3.0474 0.0000
v 1.0536 3.0474 0.0000
v 1.0536 3.0474 0.0000
v 1.0536 3.0474 0.0000
v 1.0619 2.8931 0.0000
v 1.0431 2.9015 0.1288
v 0.9975 2.9219 0.1822
v 0.9520 2.9422 0.1288
v 0.9331 2.9506 0.0000
v 0.9520 2.9422 -0.1288
v 0.9975 2.9219 -0.1822
v 1.0431 2.9015 -0.1288
v 0.9549 2.5466 0.0000
v 0.9244 2.5602 0.2085
v 0.8507 2.5932 0.2948
v 0.7770 2.6261 0.2085
v 0.7465 2.6397 0.0000
v 0.7770 2.6261 -0.2085
v 0.8507 2.5932 -0.2948
v 0.9244 2.5602 -0.2085
v 0.7735 2.1403 0.0000
v 0.7430 2.1539 0.2085
v 0.6693 2.1868 0.2948
v 0.5956 2.2198 0.2085
v 0.5651 2.2334 0.0000
v 0.5956 2.2198 -0.2085
v 0.6693 2.1868 -0.2948
v 0.7430 2.1539 -0.2085
v 0.5869 1.8294 0.0000
v 0.5680 1.8378 0.1288
v 0.5225 1.8581 0.1822
v 0.4769 1.8785 0.1288
v 0.4581 1.8869 0.0000
v 0.4769 1.8785 -0.1288
v 0.5225 1.8581 -0.1822
v 0.5680 1.8378 -0.1288
v 0.4664 1.7326 0.0000
v 0.4664 1.7326 0.0000
v 0.4664 1.7326 0.0000
v 0.4664 1.7326 0.0000
v 0.4664 1.7326 0.0000
v 0.4664 1.7326 -0.0000
v 0.4664 1.7326 -0.0000
v 0.4664 1.7326 -0.0000
f 241 249 250
f 241 250 242
f 242 250 251
f 242 251 243
f 243 251 252
f 243 252 244
f 244 252 253
f 244 253 245
f 245 253 254
f 245 254 246
f 246 254 255
f 246 255 247
f 247 255 256
f 247 256 248
f 248 256 249
f 248 249 241
f 249 257 258
f 249 258 250
f 250 258 259
f 250 259 251
f 251 259 260
f 251 260 252
f 252 260 261
f 252 261 253
f 253 261 262
f 253 262 254
f 254 262 263
f 254 263 255
f 255 263 264
f 255 264 256
f 256 264 257
f 256 257 249
f 257 265 266
f 257 266 258
f 258 266 267
f 258 267 259
f 259 267 268
f 259 268 260
f 260 268 269
f 260 269 261
f 261 269 270
f 261 270 262
f 262 270 271
f 262 271 263
f 263 271 272
f 263 272 264
f 264 272 265
f 264 265 257
f 265 273 274
f 265 274 266
f 266 274 275
f 266 275 267
f 267 275 276
f 267 276 268
f 268 276 277
f 268 277 269
f 269 277 278
f 269 278 270
f 270 278 279
f 270 279 271
f 271 279 280
f 271 280 272
f 272 280 273
f 272 273 265
f 273 281 282
f 273 282 274
f 274 282 283
f 274 283 275
f 275 283 284
f 275 284 276
f 276 284 285
f 276 285 277
f 277 285 286
f 277 286 278
f 278 286 287
f 278 287 279
f 279 287 288
f 279 288 280
f 280 288 281
f 280 281 273
o ear-0.18
usemtl coat
v 1.2929 3.6478 -0.1800
v 1.2929 3.6478 -0.1800
v 1.2929 3.6478 -0.1800
v 1.2929 3.6478 -0.1800
v 1.2929 3.6478 -0.1800
v 1.3974 3.5043 -0.1800
v 1.3380 3.4971 -0.0976
v 1.2419 3.4855 -0.1291
v 1.2419 3.4855 -0.2309
v 1.3380 3.4971 -0.2624
v 1.4345 3.1965 -0.1800
v 1.3751 3.1893 -0.0976
v 1.2790 3.1777 -0.1291
v 1.2790 3.1777 -0.2309
v 1.3751 3.1893 -0.2624
v 1.3671 3.0322 -0.1800
v 1.3671 3.0322 -0.1800
v 1.3671 3.0322 -0.1800
v 1.3671 3.0322 -0.1800
v 1.3671 3.0322 -0.1800
f 289 294 295
f 289 295 290
f 290 295 296
f 290 296 291
f 291 296 297
f 291 297 292
f 292 297 298
f 292 298 293
f 293 298 294
f 293 294 289
f 294 299 300
f 294 300 295
f 295 300 301
f 295 301 296
f 296 301 302
f 296 302 297
f 297 302 303
f 297 303 298
f 298 303 299
f 298 299 294
f 299 304 305
f 299 305 300
f 300 305 306
f 300 306 301
f 301 306 307
f 301 307 302
f 302 307 308
f 302 308 303
f 303 308 304
f 303 304 299
o eye-0.18
usemtl dark
v 1.6200 3.0740 -0.2480
v 1.6200 3.0740 -0.2480
v 1.6200 3.0740 -0.2480
v 1.6200 3.0740 -0.2480
v 1.6200 3.0740 -0.2480
v 1.6200 3.0740 -0.2480
v 1.6598 3.0470 -0.2480
v 1.6399 3.0470 -0.2293
v 1.6001 3.0470 -0.2293
v 1.5802 3.0470 -0.2480
v 1.6001 3.0470 -0.2667
v 1.6399 3.0470 -0.2667
v 1.6598 2.9930 -0.2480
v 1.6399 2.9930 -0.2293
v 1.6001 2.9930 -0.2293
v 1.5802 2.9930 -0.2480
v 1.6001 2.9930 -0.2667
v 1.6399 2.9930 -0.2667
v 1.6200 2.9660 -0.2480
v 1.6200 2.9660 -0.2480
v 1.6200 2.9660 -0.2480
v 1.6200 2.9660 -0.2480
v 1.6200 2.9660 -0.2480
v 1.6200 2.9660 -0.2480
f 309 315 316
f 309 316 310
f 310 316 317
f 310 317 311
f 311 317 318
f 311 318 312
f 312 318 319
f 312 319 313
f 313 319 320
f 313 320 314
f 314 320 315
f 314 315 309
f 315 321 322
f 315 322 316
f 316 322 323
f 316 323 317
f 317 323 324
f 317 324 318
f 318 324 325
f 318 325 319
f 319 325 326
f 319 326 320
f 320 326 321
f 320 321 315
f 321 327 328
f 321 328 322
f 322 328 329
f 322 329 323
f 323 329 330
f 323 330 324
f 324 330 331
f 324 331 325
f 325 331 332
f 325 332 326
f 326 332 327
f 326 327 321
o ear0.18
usemtl coat
v 1.2929 3.6478 0.1800
v 1.2929 3.6478 0.1800
v 1.2929 3.6478 0.1800
v 1.2929 3.6478 0.1800
v 1.2929 3.6478 0.1800
v 1.3974 3.5043 0.1800
v 1.3380 3.4971 0.2624
v 1.2419 3.4855 0.2309
v 1.2419 3.4855 0.1291
v 1.3380 3.4971 0.0976
v 1.4345 3.1965 0.1800
v 1.3751 3.1893 0.2624
v 1.2790 3.1777 0.2309
v 1.2790 3.1777 0.1291
v 1.3751 3.1893 0.0976
v 1.3671 3.0322 0.1800
v 1.3671 3.0322 0.1800
v 1.3671 3.0322 0.1800
v 1.3671 3.0322 0.1800
v 1.3671 3.0322 0.1800
f 333 338 339
f 333 339 334
f 334 339 340
f 334 340 335
f 335 340 341
f 335 341 336
f 336 341 342
f 336 342 337
f 337 342 338
f 337 338 333
f 338 343 344
f 338 344 339
f 339 344 345
f 339 345 340
f 340 345 346
f 340 346 341
f 341 346 347
f 341 347 342
f 342 347 343
f 342 343 338
f 343 348 349
f 343 349 344
f 344 349 350
f 344 350 345
f 345 350 351
f 345 351 346
f 346 351 352
f 346 352 347
f 347 352 348
f 347 348 343
o eye0.18
usemtl dark
v 1.6200 3.0740 0.2480
v 1.6200 3.0740 0.2480
v 1.6200 3.0740 0.2480
v 1.6200 3.0740 0.2480
v 1.6200 3.0740 0.2480
v 1.6200 3.0740 0.2480
v 1.6598 3.0470 0.2480
v 1.6399 3.0470 0.2667
v 1.6001 3.0470 0.2667
v 1.5802 3.0470 0.2480
v 1.6001 3.0470 0.2293
v 1.6399 3.0470 0.2293
v 1.6598 2.9930 0.2480
v 1.6399 2.9930 0.2667
v 1.6001 2.9930 0.2667
v 1.5802 2.9930 0.2480
v 1.6001 2.9930 0.2293
v 1.6399 2.9930 0.2293
v 1.6200 2.9660 0.2480
v 1.6200 2.9660 0.2480
v 1.6200 2.9660 0.2480
v 1.6200 2.9660 0.2480
v 1.6200 2.9660 0.2480
v 1.6200 2.9660 0.2480
f 353 359 360
f 353 360 354
f 354 360 361
f 354 361 355
f 355 361 362
f 355 362 356
f 356 362 363
f 356 363 357
f 357 363 364
f 357 364 358
f 358 364 359
f 358 359 353
f 359 365 366
f 359 366 360
f 360 366 367
f 360 367 361
f 361 367 368
f 361 368 362
f 362 368 369
f 362 369 363
f 363 369 370
f 363 370 364
f 364 370 365
f 364 365 359
f 365 371 372
f 365 372 366
f 366 372 373
f 366 373 367
f 367 373 374
f 367 374 368
f 368 374 375
f 368 375 369
f 369 375 376
f 369 376 370
f 370 376 371
f 370 371 365
o upper-leg-0.76-0.29
usemtl coat
v -0.5777 1.5663 -0.2900
v -0.5777 1.5663 -0.2900
v -0.5777 1.5663 -0.2900
v -0.5777 1.5663 -0.2900
v -0.5777 1.5663 -0.2900
v -0.5777 1.5663 -0.2900
v -0.5777 1.5663 -0.2900
v -0.5777 1.5663 -0.2900
v -0.4788 1.4543 -0.2900
v -0.5112 1.4582 -0.2152
v -0.5896 1.4677 -0.1842
v -0.6680 1.4771 -0.2152
v -0.7005 1.4810 -0.2900
v -0.6680 1.4771 -0.3648
v -0.5896 1.4677 -0.3958
v -0.5112 1.4582 -0.3648
v -0.4414 1.1879 -0.2900
v -0.4939 1.1942 -0.1690
v -0.6208 1.2095 -0.1188
v -0.7476 1.2248 -0.1690
v -0.8002 1.2312 -0.2900
v -0.7476 1.2248 -0.4110
v -0.6208 1.2095 -0.4612
v -0.4939 1.1942 -0.4110
v -0.4798 0.8688 -0.2900
v -0.5324 0.8752 -0.1690
v -0.6592 0.8905 -0.1188
v -0.7861 0.9058 -0.1690
v -0.8386 0.9121 -0.2900
v -0.7861 0.9058 -0.4110
v -0.6592 0.8905 -0.4612
v -0.5324 0.8752 -0.4110
v -0.5795 0.6190 -0.2900
v -0.6120 0.6229 -0.2152
v -0.6904 0.6323 -0.1842
v -0.7688 0.6418 -0.2152
v -0.8012 0.6457 -0.2900
v -0.7688 0.6418 -0.3648
v -0.6904 0.6323 -0.3958
v -0.6120 0.6229 -0.3648
v -0.7023 0.5337 -0.2900
v -0.7023 0.5337 -0.2900
v -0.7023 0.5337 -0.2900
v -0.7023 0.5337 -0.2900
v -0.7023 0.5337 -0.2900
v -0.7023 0.5337 -0.2900
v -0.7023 0.5337 -0.2900
v -0.7023 0.5337 -0.2900
f 377 385 386
f 377 386 378
f 378 386 387
f 378 387 379
f 379 387 388
f 379 388 380
f 380 388 389
f 380 389 381
f 381 389 390
f 381 390 382
f 382 390 391
f 382 391 383
f 383 391 392
f 383 392 384
f 384 392 385
f 384 385 377
f 385 393 394
f 385 394 386
f 386 394 395
f 386 395 387
f 387 395 396
f 387 396 388
f 388 396 397
f 388 397 389
f 389 397 398
f 389 398 390
f 390 398 399
f 390 399 391
f 391 399 400
f 391 400 392
f 392 400 393
f 392 393 385
f 393 401 402
f 393 402 394
f 394 402 403
f 394 403 395
f 395 403 404
f 395 404 396
f 396 404 405
f 396 405 397
f 397 405 406
f 397 406 398
f 398 406 407
f 398 407 399
f 399 407 408
f 399 408 400
f 400 408 401
f 400 401 393
f 401 409 410
f 401 410 402
f 402 410 411
f 402 411 403
f 403 411 412
f 403 412 404
f 404 412 413
f 404 413 405
f 405 413 414
f 405 414 406
f 406 414 415
f 406 415 407
f 407 415 416
f 407 416 408
f 408 416 409
f 408 409 401
f 409 417 418
f 409 418 410
f 410 418 419
f 410 419 411
f 411 419 420
f 411 420 412
f 412 420 421
f 412 421 413
f 413 421 422
f 413 422 414
f 414 422 423
f 414 423 415
f 415 423 424
f 415 424 416
f 416 424 417
f 416 417 409
o lower-leg-0.76-0.29
usemtl coat
v -0.6056 0.8886 -0.2900
v -0.6056 0.8886 -0.2900
v -0.6056 0.8886 -0.2900
v -0.6056 0.8886 -0.2900
v -0.6056 0.8886 -0.2900
v -0.6056 0.8886 -0.2900
v -0.6056 0.8886 -0.2900
v -0.6056 0.8886 -0.2900
v -0.5536 0.8021 -0.2900
v -0.5708 0.8034 -0.2484
v -0.6122 0.8068 -0.2312
v -0.6536 0.8101 -0.2484
v -0.6708 0.8115 -0.2900
v -0.6536 0.8101 -0.3316
v -0.6122 0.8068 -0.3488
v -0.5708 0.8034 -0.3316
v -0.5346 0.5849 -0.2900
v -0.5623 0.5871 -0.2228
v -0.6294 0.5925 -0.1949
v -0.6964 0.5978 -0.2228
v -0.7242 0.6001 -0.2900
v -0.6964 0.5978 -0.3572
v -0.6294 0.5925 -0.3851
v -0.5623 0.5871 -0.3572
v -0.5558 0.3199 -0.2900
v -0.5836 0.3222 -0.2228
v -0.6506 0.3275 -0.1949
v -0.7177 0.3329 -0.2228
v -0.7454 0.3351 -0.2900
v -0.7177 0.3329 -0.3572
v -0.6506 0.3275 -0.3851
v -0.5836 0.3222 -0.3572
v -0.6092 0.1085 -0.2900
v -0.6264 0.1099 -0.2484
v -0.6678 0.1132 -0.2312
v -0.7092 0.1166 -0.2484
v -0.7264 0.1179 -0.2900
v -0.7092 0.1166 -0.3316
v -0.6678 0.1132 -0.3488
v -0.6264 0.1099 -0.3316
v -0.6744 0.0314 -0.2900
v -0.6744 0.0314 -0.2900
v -0.6744 0.0314 -0.2900
v -0.6744 0.0314 -0.2900
v -0.6744 0.0314 -0.2900
v -0.6744 0.0314 -0.2900
v -0.6744 0.0314 -0.2900
v -0.6744 0.0314 -0.2900
f 425 433 434
f 425 434 426
f 426 434 435
f 426 435 427
f 427 435 436
f 427 436 428
f 428 436 437
f 428 437 429
f 429 437 438
f 429 438 430
f 430 438 439
f 430 439 431
f 431 439 440
f 431 440 432
f 432 440 433
f 432 433 425
f 433 441 442
f 433 442 434
f 434 442 443
f 434 443 435
f 435 443 444
f 435 444 436
f 436 444 445
f 436 445 437
f 437 445 446
f 437 446 438
f 438 446 447
f 438 447 439
f 439 447 448
f 439 448 440
f 440 448 441
f 440 441 433
f 441 449 450
f 441 450 442
f 442 450 451
f 442 451 443
f 443 451 452
f 443 452 444
f 444 452 453
f 444 453 445
f 445 453 454
f 445 454 446
f 446 454 455
f 446 455 447
f 447 455 456
f 447 456 448
f 448 456 449
f 448 449 441
f 449 457 458
f 449 458 450
f 450 458 459
f 450 459 451
f 451 459 460
f 451 460 452
f 452 460 461
f 452 461 453
f 453 461 462
f 453 462 454
f 454 462 463
f 454 463 455
f 455 463 464
f 455 464 456
f 456 464 457
f 456 457 449
f 457 465 466
f 457 466 458
f 458 466 467
f 458 467 459
f 459 467 468
f 459 468 460
f 460 468 469
f 460 469 461
f 461 469 470
f 461 470 462
f 462 470 471
f 462 471 463
f 463 471 472
f 463 472 464
f 464 472 465
f 464 465 457
o hoof-0.76-0.29
usemtl dark
v -0.6050 0.2400 -0.2900
v -0.6050 0.2400 -0.2900
v -0.6050 0.2400 -0.2900
v -0.6050 0.2400 -0.2900
v -0.6050 0.2400 -0.2900
v -0.6050 0.2400 -0.2900
v -0.4578 0.1750 -0.2900
v -0.5314 0.1750 -0.1887
v -0.6786 0.1750 -0.1887
v -0.7522 0.1750 -0.2900
v -0.6786 0.1750 -0.3912
v -0.5314 0.1750 -0.3912
v -0.4578 0.0450 -0.2900
v -0.5314 0.0450 -0.1887
v -0.6786 0.0450 -0.1887
v -0.7522 0.0450 -0.2900
v -0.6786 0.0450 -0.3912
v -0.5314 0.0450 -0.3912
v -0.6050 -0.0200 -0.2900
v -0.6050 -0.0200 -0.2900
v -0.6050 -0.0200 -0.2900
v -0.6050 -0.0200 -0.2900
v -0.6050 -0.0200 -0.2900
v -0.6050 -0.0200 -0.2900
f 473 479 480
f 473 480 474
f 474 480 481
f 474 481 475
f 475 481 482
f 475 482 476
f 476 482 483
f 476 483 477
f 477 483 484
f 477 484 478
f 478 484 479
f 478 479 473
f 479 485 486
f 479 486 480
f 480 486 487
f 480 487 481
f 481 487 488
f 481 488 482
f 482 488 489
f 482 489 483
f 483 489 490
f 483 490 484
f 484 490 485
f 484 485 479
f 485 491 492
f 485 492 486
f 486 492 493
f 486 493 487
f 487 493 494
f 487 494 488
f 488 494 495
f 488 495 489
f 489 495 496
f 489 496 490
f 490 496 491
f 490 491 485
o upper-leg-0.760.29
usemtl coat
v -0.8177 1.5663 0.2900
v -0.8177 1.5663 0.2900
v -0.8177 1.5663 0.2900
v -0.8177 1.5663 0.2900
v -0.8177 1.5663 0.2900
v -0.8177 1.5663 0.2900
v -0.8177 1.5663 0.2900
v -0.8177 1.5663 0.2900
v -0.7188 1.4543 0.2900
v -0.7512 1.4582 0.3648
v -0.8296 1.4677 0.3958
v -0.9080 1.4771 0.3648
v -0.9405 1.4810 0.2900
v -0.9080 1.4771 0.2152
v -0.8296 1.4677 0.1842
v -0.7512 1.4582 0.2152
v -0.6814 1.1879 0.2900
v -0.7339 1.1942 0.4110
v -0.8608 1.2095 0.4612
v -0.9876 1.2248 0.4110
v -1.0402 1.2312 0.2900
v -0.9876 1.2248 0.1690
v -0.8608 1.2095 0.1188
v -0.7339 1.1942 0.1690
v -0.7198 0.8688 0.2900
v -0.7724 0.8752 0.4110
v -0.8992 0.8905 0.4612
v -1.0261 0.9058 0.4110
v -1.0786 0.9121 0.2900
v -1.0261 0.9058 0.1690
v -0.8992 0.8905 0.1188
v -0.7724 0.8752 0.1690
v -0.8195 0.6190 0.2900
v -0.8520 0.6229 0.3648
v -0.9304 0.6323 0.3958
v -1.0088 0.6418 0.3648
v -1.0412 0.6457 0.2900
v -1.0088 0.6418 0.2152
v -0.9304 0.6323 0.1842
v -0.8520 0.6229 0.2152
v -0.9423 0.5337 0.2900
v -0.9423 0.5337 0.2900
v -0.9423 0.5337 0.2900
v -0.9423 0.5337 0.2900
v -0.9423 0.5337 0.2900
v -0.9423 0.5337 0.2900
v -0.9423 0.5337 0.2900
v -0.9423 0.5337 0.2900
f 497 505 506
f 497 506 498
f 498 506 507
f 498 507 499
f 499 507 508
f 499 508 500
f 500 508 509
f 500 509 501
f 501 509 510
f 501 510 502
f 502 510 511
f 502 511 503
f 503 511 512
f 503 512 504
f 504 512 505
f 504 505 497
f 505 513 514
f 505 514 506
f 506 514 515
f 506 515 507
f 507 515 516
f 507 516 508
f 508 516 517
f 508 517 509
f 509 517 518
f 509 518 510
f 510 518 519
f 510 519 511
f 511 519 520
f 511 520 512
f 512 520 513
f 512 513 505
f 513 521 522
f 513 522 514
f 514 522 523
f 514 523 515
f 515 523 524
f 515 524 516
f 516 524 525
f 516 525 517
f 517 525 526
f 517 526 518
f 518 526 527
f 518 527 519
f 519 527 528
f 519 528 520
f 520 528 521
f 520 521 513
f 521 529 530
f 521 530 522
f 522 530 531
f 522 531 523
f 523 531 532
f 523 532 524
f 524 532 533
f 524 533 525
f 525 533 534
f 525 534 526
f 526 534 535
f 526 535 527
f 527 535 536
f 527 536 528
f 528 536 529
f 528 529 521
f 529 537 538
f 529 538 530
f 530 538 539
f 530 539 531
f 531 539 540
f 531 540 532
f 532 540 541
f 532 541 533
f 533 541 542
f 533 542 534
f 534 542 543
f 534 543 535
f 535 543 544
f 535 544 536
f 536 544 537
f 536 537 529
o lower-leg-0.760.29
usemtl coat
v -0.8456 0.8886 0.2900
v -0.8456 0.8886 0.2900
v -0.8456 0.8886 0.2900
v -0.8456 0.8886 0.2900
v -0.8456 0.8886 0.2900
v -0.8456 0.8886 0.2900
v -0.8456 0.8886 0.2900
v -0.8456 0.8886 0.2900
v -0.7936 0.8021 0.2900
v -0.8108 0.8034 0.3316
v -0.8522 0.8068 0.3488
v -0.8936 0.8101 0.3316
v -0.9108 0.8115 0.2900
v -0.8936 0.8101 0.2484
v -0.8522 0.8068 0.2312
v -0.8108 0.8034 0.2484
v -0.7746 0.5849 0.2900
v -0.8023 0.5871 0.3572
v -0.8694 0.5925 0.3851
v -0.9364 0.5978 0.3572
v -0.9642 0.6001 0.2900
v -0.9364 0.5978 0.2228
v -0.8694 0.5925 0.1949
v -0.8023 0.5871 0.2228
v -0.7958 0.3199 0.2900
v -0.8236 0.3222 0.3572
v -0.8906 0.3275 0.3851
v -0.9577 0.3329 0.3572
v -0.9854 0.3351 0.2900
v -0.9577 0.3329 0.2228
v -0.8906 0.3275 0.1949
v -0.8236 0.3222 0.2228
v -0.8492 0.1085 0.2900
v -0.8664 0.1099 0.3316
v -0.9078 0.1132 0.3488
v -0.9492 0.1166 0.3316
v -0.9664 0.1179 0.2900
v -0.9492 0.1166 0.2484
v -0.9078 0.1132 0.2312
v -0.8664 0.1099 0.2484
v -0.9144 0.0314 0.2900
v -0.9144 0.0314 0.2900
v -0.9144 0.0314 0.2900
v -0.9144 0.0314 0.2900
v -0.9144 0.0314 0.2900
v -0.9144 0.0314 0.2900
v -0.9144 0.0314 0.2900
v -0.9144 0.0314 0.2900
f 545 553 554
f 545 554 546
f 546 554 555
f 546 555 547
f 547 555 556
f 547 556 548
f 548 556 557
f 548 557 549
f 549 557 558
f 549 558 550
f 550 558 559
f 550 559 551
f 551 559 560
f 551 560 552
f 552 560 553
f 552 553 545
f 553 561 562
f 553 562 554
f 554 562 563
f 554 563 555
f 555 563 564
f 555 564 556
f 556 564 565
f 556 565 557
f 557 565 566
f 557 566 558
f 558 566 567
f 558 567 559
f 559 567 568
f 559 568 560
f 560 568 561
f 560 561 553
f 561 569 570
f 561 570 562
f 562 570 571
f 562 571 563
f 563 571 572
f 563 572 564
f 564 572 573
f 564 573 565
f 565 573 574
f 565 574 566
f 566 574 575
f 566 575 567
f 567 575 576
f 567 576 568
f 568 576 569
f 568 569 561
f 569 577 578
f 569 578 570
f 570 578 579
f 570 579 571
f 571 579 580
f 571 580 572
f 572 580 581
f 572 581 573
f 573 581 582
f 573 582 574
f 574 582 583
f 574 583 575
f 575 583 584
f 575 584 576
f 576 584 577
f 576 577 569
f 577 585 586
f 577 586 578
f 578 586 587
f 578 587 579
f 579 587 588
f 579 588 580
f 580 588 589
f 580 589 581
f 581 589 590
f 581 590 582
f 582 590 591
f 582 591 583
f 583 591 592
f 583 592 584
f 584 592 585
f 584 585 577
o hoof-0.760.29
usemtl dark
v -0.8450 0.2400 0.2900
v -0.8450 0.2400 0.2900
v -0.8450 0.2400 0.2900
v -0.8450 0.2400 0.2900
v -0.8450 0.2400 0.2900
v -0.8450 0.2400 0.2900
v -0.6978 0.1750 0.2900
v -0.7714 0.1750 0.3912
v -0.9186 0.1750 0.3912
v -0.9922 0.1750 0.2900
v -0.9186 0.1750 0.1887
v -0.7714 0.1750 0.1887
v -0.6978 0.0450 0.2900
v -0.7714 0.0450 0.3912
v -0.9186 0.0450 0.3912
v -0.9922 0.0450 0.2900
v -0.9186 0.0450 0.1887
v -0.7714 0.0450 0.1887
v -0.8450 -0.0200 0.2900
v -0.8450 -0.0200 0.2900
v -0.8450 -0.0200 0.2900
v -0.8450 -0.0200 0.2900
v -0.8450 -0.0200 0.2900
v -0.8450 -0.0200 0.2900
f 593 599 600
f 593 600 594
f 594 600 601
f 594 601 595
f 595 601 602
f 595 602 596
f 596 602 603
f 596 603 597
f 597 603 604
f 597 604 598
f 598 604 599
f 598 599 593
f 599 605 606
f 599 606 600
f 600 606 607
f 600 607 601
f 601 607 608
f 601 608 602
f 602 608 609
f 602 609 603
f 603 609 610
f 603 610 604
f 604 610 605
f 604 605 599
f 605 611 612
f 605 612 606
f 606 612 613
f 606 613 607
f 607 613 614
f 607 614 608
f 608 614 615
f 608 615 609
f 609 615 616
f 609 616 610
f 610 616 611
f 610 611 605
o upper-leg0.76-0.29
usemtl coat
v 0.8488 1.5691 -0.2900
v 0.8488 1.5691 -0.2900
v 0.8488 1.5691 -0.2900
v 0.8488 1.5691 -0.2900
v 0.8488 1.5691 -0.2900
v 0.8488 1.5691 -0.2900
v 0.8488 1.5691 -0.2900
v 0.8488 1.5691 -0.2900
v 0.9663 1.4766 -0.2900
v 0.9336 1.4747 -0.2152
v 0.8548 1.4699 -0.1842
v 0.7759 1.4652 -0.2152
v 0.7433 1.4632 -0.2900
v 0.7759 1.4652 -0.3648
v 0.8548 1.4699 -0.3958
v 0.9336 1.4747 -0.3648
v 1.0507 1.2212 -0.2900
v 0.9979 1.2181 -0.1690
v 0.8704 1.2104 -0.1188
v 0.7428 1.2027 -0.1690
v 0.6900 1.1996 -0.2900
v 0.7428 1.2027 -0.4110
v 0.8704 1.2104 -0.4612
v 0.9979 1.2181 -0.4110
v 1.0700 0.9004 -0.2900
v 1.0172 0.8973 -0.1690
v 0.8896 0.8896 -0.1188
v 0.7621 0.8819 -0.1690
v 0.7093 0.8788 -0.2900
v 0.7621 0.8819 -0.4110
v 0.8896 0.8896 -0.4612
v 1.0172 0.8973 -0.4110
v 1.0167 0.6368 -0.2900
v 0.9841 0.6348 -0.2152
v 0.9052 0.6301 -0.1842
v 0.8264 0.6253 -0.2152
v 0.7937 0.6234 -0.2900
v 0.8264 0.6253 -0.3648
v 0.9052 0.6301 -0.3958
v 0.9841 0.6348 -0.3648
v 0.9112 0.5309 -0.2900
v 0.9112 0.5309 -0.2900
v 0.9112 0.5309 -0.2900
v 0.9112 0.5309 -0.2900
v 0.9112 0.5309 -0.2900
v 0.9112 0.5309 -0.2900
v 0.9112 0.5309 -0.2900
v 0.9112 0.5309 -0.2900
f 617 625 626
f 617 626 618
f 618 626 627
f 618 627 619
f 619 627 628
f 619 628 620
f 620 628 629
f 620 629 621
f 621 629 630
f 621 630 622
f 622 630 631
f 622 631 623
f 623 631 632
f 623 632 624
f 624 632 625
f 624 625 617
f 625 633 634
f 625 634 626
f 626 634 635
f 626 635 627
f 627 635 636
f 627 636 628
f 628 636 637
f 628 637 629
f 629 637 638
f 629 638 630
f 630 638 639
f 630 639 631
f 631 639 640
f 631 640 632
f 632 640 633
f 632 633 625
f 633 641 642
f 633 642 634
f 634 642 643
f 634 643 635
f 635 643 644
f 635 644 636
f 636 644 645
f 636 645 637
f 637 645 646
f 637 646 638
f 638 646 647
f 638 647 639
f 639 647 648
f 639 648 640
f 640 648 641
f 640 641 633
f 641 649 650
f 641 650 642
f 642 650 651
f 642 651 643
f 643 651 652
f 643 652 644
f 644 652 653
f 644 653 645
f 645 653 654
f 645 654 646
f 646 654 655
f 646 655 647
f 647 655 656
f 647 656 648
f 648 656 649
f 648 649 641
f 649 657 658
f 649 658 650
f 650 658 659
f 650 659 651
f 651 659 660
f 651 660 652
f 652 660 661
f 652 661 653
f 653 661 662
f 653 662 654
f 654 662 663
f 654 663 655
f 655 663 664
f 655 664 656
f 656 664 657
f 656 657 649
o lower-leg0.76-0.29
usemtl coat
v 0.9144 0.8886 -0.2900
v 0.9144 0.8886 -0.2900
v 0.9144 0.8886 -0.2900
v 0.9144 0.8886 -0.2900
v 0.9144 0.8886 -0.2900
v 0.9144 0.8886 -0.2900
v 0.9144 0.8886 -0.2900
v 0.9144 0.8886 -0.2900
v 0.9664 0.8021 -0.2900
v 0.9492 0.8034 -0.2484
v 0.9078 0.8068 -0.2312
v 0.8664 0.8101 -0.2484
v 0.8492 0.8115 -0.2900
v 0.8664 0.8101 -0.3316
v 0.9078 0.8068 -0.3488
v 0.9492 0.8034 -0.3316
v 0.9854 0.5849 -0.2900
v 0.9577 0.5871 -0.2228
v 0.8906 0.5925 -0.1949
v 0.8236 0.5978 -0.2228
v 0.7958 0.6001 -0.2900
v 0.8236 0.5978 -0.3572
v 0.8906 0.5925 -0.3851
v 0.9577 0.5871 -0.3572
v 0.9642 0.3199 -0.2900
v 0.9364 0.3222 -0.2228
v 0.8694 0.3275 -0.1949
v 0.8023 0.3329 -0.2228
v 0.7746 0.3351 -0.2900
v 0.8023 0.3329 -0.3572
v 0.8694 0.3275 -0.3851
v 0.9364 0.3222 -0.3572
v 0.9108 0.1085 -0.2900
v 0.8936 0.1099 -0.2484
v 0.8522 0.1132 -0.2312
v 0.8108 0.1166 -0.2484
v 0.7936 0.1179 -0.2900
v 0.8108 0.1166 -0.3316
v 0.8522 0.1132 -0.3488
v 0.8936 0.1099 -0.3316
v 0.8456 0.0314 -0.2900
v 0.8456 0.0314 -0.2900
v 0.8456 0.0314 -0.2900
v 0.8456 0.0314 -0.2900
v 0.8456 0.0314 -0.2900
v 0.8456 0.0314 -0.2900
v 0.8456 0.0314 -0.2900
v 0.8456 0.0314 -0.2900
f 665 673 674
f 665 674 666
f 666 674 675
f 666 675 667
f 667 675 676
f 667 676 668
f 668 676 677
f 668 677 669
f 669 677 678
f 669 678 670
f 670 678 679
f 670 679 671
f 671 679 680
f 671 680 672
f 672 680 673
f 672 673 665
f 673 681 682
f 673 682 674
f 674 682 683
f 674 683 675
f 675 683 684
f 675 684 676
f 676 684 685
f 676 685 677
f 677 685 686
f 677 686 678
f 678 686 687
f 678 687 679
f 679 687 688
f 679 688 680
f 680 688 681
f 680 681 673
f 681 689 690
f 681 690 682
f 682 690 691
f 682 691 683
f 683 691 692
f 683 692 684
f 684 692 693
f 684 693 685
f 685 693 694
f 685 694 686
f 686 694 695
f 686 695 687
f 687 695 696
f 687 696 688
f 688 696 689
f 688 689 681
f 689 697 698
f 689 698 690
f 690 698 699
f 690 699 691
f 691 699 700
f 691 700 692
f 692 700 701
f 692 701 693
f 693 701 702
f 693 702 694
f 694 702 703
f 694 703 695
f 695 703 704
f 695 704 696
f 696 704 697
f 696 697 689
f 697 705 706
f 697 706 698
f 698 706 707
f 698 707 699
f 699 707 708
f 699 708 700
f 700 708 709
f 700 709 701
f 701 709 710
f 701 710 702
f 702 710 711
f 702 711 703
f 703 711 712
f 703 712 704
f 704 712 705
f 704 705 697
o hoof0.76-0.29
usemtl dark
v 0.9150 0.2400 -0.2900
v 0.9150 0.2400 -0.2900
v 0.9150 0.2400 -0.2900
v 0.9150 0.2400 -0.2900
v 0.9150 0.2400 -0.2900
v 0.9150 0.2400 -0.2900
v 1.0622 0.1750 -0.2900
v 0.9886 0.1750 -0.1887
v 0.8414 0.1750 -0.1887
v 0.7678 0.1750 -0.2900
v 0.8414 0.1750 -0.3912
v 0.9886 0.1750 -0.3912
v 1.0622 0.0450 -0.2900
v 0.9886 0.0450 -0.1887
v 0.8414 0.0450 -0.1887
v 0.7678 0.0450 -0.2900
v 0.8414 0.0450 -0.3912
v 0.9886 0.0450 -0.3912
v 0.9150 -0.0200 -0.2900
v 0.9150 -0.0200 -0.2900
v 0.9150 -0.0200 -0.2900
v 0.9150 -0.0200 -0.2900
v 0.9150 -0.0200 -0.2900
v 0.9150 -0.0200 -0.2900
f 713 719 720
f 713 720 714
f 714 720 721
f 714 721 715
f 715 721 722
f 715 722 716
f 716 722 723
f 716 723 717
f 717 723 724
f 717 724 718
f 718 724 719
f 718 719 713
f 719 725 726
f 719 726 720
f 720 726 727
f 720 727 721
f 721 727 728
f 721 728 722
f 722 728 729
f 722 729 723
f 723 729 730
f 723 730 724
f 724 730 725
f 724 725 719
f 725 731 732
f 725 732 726
f 726 732 733
f 726 733 727
f 727 733 734
f 727 734 728
f 728 734 735
f 728 735 729
f 729 735 736
f 729 736 730
f 730 736 731
f 730 731 725
o upper-leg0.760.29
usemtl coat
v 0.6088 1.5691 0.2900
v 0.6088 1.5691 0.2900
v 0.6088 1.5691 0.2900
v 0.6088 1.5691 0.2900
v 0.6088 1.5691 0.2900
v 0.6088 1.5691 0.2900
v 0.6088 1.5691 0.2900
v 0.6088 1.5691 0.2900
v 0.7263 1.4766 0.2900
v 0.6936 1.4747 0.3648
v 0.6148 1.4699 0.3958
v 0.5359 1.4652 0.3648
v 0.5033 1.4632 0.2900
v 0.5359 1.4652 0.2152
v 0.6148 1.4699 0.1842
v 0.6936 1.4747 0.2152
v 0.8107 1.2212 0.2900
v 0.7579 1.2181 0.4110
v 0.6304 1.2104 0.4612
v 0.5028 1.2027 0.4110
v 0.4500 1.1996 0.2900
v 0.5028 1.2027 0.1690
v 0.6304 1.2104 0.1188
v 0.7579 1.2181 0.1690
v 0.8300 0.9004 0.2900
v 0.7772 0.8973 0.4110
v 0.6496 0.8896 0.4612
v 0.5221 0.8819 0.4110
v 0.4693 0.8788 0.2900
v 0.5221 0.8819 0.1690
v 0.6496 0.8896 0.1188
v 0.7772 0.8973 0.1690
v 0.7767 0.6368 0.2900
v 0.7441 0.6348 0.3648
v 0.6652 0.6301 0.3958
v 0.5864 0.6253 0.3648
v 0.5537 0.6234 0.2900
v 0.5864 0.6253 0.2152
v 0.6652 0.6301 0.1842
v 0.7441 0.6348 0.2152
v 0.6712 0.5309 0.2900
v 0.6712 0.5309 0.2900
v 0.6712 0.5309 0.2900
v 0.6712 0.5309 0.2900
v 0.6712 0.5309 0.2900
v 0.6712 0.5309 0.2900
v 0.6712 0.5309 0.2900
v 0.6712 0.5309 0.2900
f 737 745 746
f 737 746 738
f 738 746 747
f 738 747 739
f 739 747 748
f 739 748 740
f 740 748 749
f 740 749 741
f 741 749 750
f 741 750 742
f 742 750 751
f 742 751 743
f 743 751 752
f 743 752 744
f 744 752 745
f 744 745 737
f 745 753 754
f 745 754 746
f 746 754 755
f 746 755 747
f 747 755 756
f 747 756 748
f 748 756 757
f 748 757 749
f 749 757 758
f 749 758 750
f 750 758 759
f 750 759 751
f 751 759 760
f 751 760 752
f 752 760 753
f 752 753 745
f 753 761 762
f 753 762 754
f 754 762 763
f 754 763 755
f 755 763 764
f 755 764 756
f 756 764 765
f 756 765 757
f 757 765 766
f 757 766 758
f 758 766 767
f 758 767 759
f 759 767 768
f 759 768 760
f 760 768 761
f 760 761 753
f 761 769 770
f 761 770 762
f 762 770 771
f 762 771 763
f 763 771 772
f 763 772 764
f 764 772 773
f 764 773 765
f 765 773 774
f 765 774 766
f 766 774 775
f 766 775 767
f 767 775 776
f 767 776 768
f 768 776 769
f 768 769 761
f 769 777 778
f 769 778 770
f 770 778 779
f 770 779 771
f 771 779 780
f 771 780 772
f 772 780 781
f 772 781 773
f 773 781 782
f 773 782 774
f 774 782 783
f 774 783 775
f 775 783 784
f 775 784 776
f 776 784 777
f 776 777 769
o lower-leg0.760.29
usemtl coat
v 0.6744 0.8886 0.2900
v 0.6744 0.8886 0.2900
v 0.6744 0.8886 0.2900
v 0.6744 0.8886 0.2900
v 0.6744 0.8886 0.2900
v 0.6744 0.8886 0.2900
v 0.6744 0.8886 0.2900
v 0.6744 0.8886 0.2900
v 0.7264 0.8021 0.2900
v 0.7092 0.8034 0.3316
v 0.6678 0.8068 0.3488
v 0.6264 0.8101 0.3316
v 0.6092 0.8115 0.2900
v 0.6264 0.8101 0.2484
v 0.6678 0.8068 0.2312
v 0.7092 0.8034 0.2484
v 0.7454 0.5849 0.2900
v 0.7177 0.5871 0.3572
v 0.6506 0.5925 0.3851
v 0.5836 0.5978 0.3572
v 0.5558 0.6001 0.2900
v 0.5836 0.5978 0.2228
v 0.6506 0.5925 0.1949
v 0.7177 0.5871 0.2228
v 0.7242 0.3199 0.2900
v 0.6964 0.3222 0.3572
v 0.6294 0.3275 0.3851
v 0.5623 0.3329 0.3572
v 0.5346 0.3351 0.2900
v 0.5623 0.3329 0.2228
v 0.6294 0.3275 0.1949
v 0.6964 0.3222 0.2228
v 0.6708 0.1085 0.2900
v 0.6536 0.1099 0.3316
v 0.6122 0.1132 0.3488
v 0.5708 0.1166 0.3316
v 0.5536 0.1179 0.2900
v 0.5708 0.1166 0.2484
v 0.6122 0.1132 0.2312
v 0.6536 0.1099 0.2484
v 0.6056 0.0314 0.2900
v 0.6056 0.0314 0.2900
v 0.6056 0.0314 0.2900
v 0.6056 0.0314 0.2900
v 0.6056 0.0314 0.2900
v 0.6056 0.0314 0.2900
v 0.6056 0.0314 0.2900
v 0.6056 0.0314 0.2900
f 785 793 794
f 785 794 786
f 786 794 795
f 786 795 787
f 787 795 796
f 787 796 788
f 788 796 797
f 788 797 789
f 789 797 798
f 789 798 790
f 790 798 799
f 790 799 791
f 791 799 800
f 791 800 792
f 792 800 793
f 792 793 785
f 793 801 802
f 793 802 794
f 794 802 803
f 794 803 795
f 795 803 804
f 795 804 796
f 796 804 805
f 796 805 797
f 797 805 806
f 797 806 798
f 798 806 807
f 798 807 799
f 799 807 808
f 799 808 800
f 800 808 801
f 800 801 793
f 801 809 810
f 801 810 802
f 802 810 811
f 802 811 803
f 803 811 812
f 803 812 804
f 804 812 813
f 804 813 805
f 805 813 814
f 805 814 806
f 806 814 815
f 806 815 807
f 807 815 816
f 807 816 808
f 808 816 809
f 808 809 801
f 809 817 818
f 809 818 810
f 810 818 819
f 810 819 811
f 811 819 820
f 811 820 812
f 812 820 821
f 812 821 813
f 813 821 822
f 813 822 814
f 814 822 823
f 814 823 815
f 815 823 824
f 815 824 816
f 816 824 817
f 816 817 809
f 817 825 826
f 817 826 818
f 818 826 827
f 818 827 819
f 819 827 828
f 819 828 820
f 820 828 829
f 820 829 821
f 821 829 830
f 821 830 822
f 822 830 831
f 822 831 823
f 823 831 832
f 823 832 824
f 824 832 825
f 824 825 817
o hoof0.760.29
usemtl dark
v 0.6750 0.2400 0.2900
v 0.6750 0.2400 0.2900
v 0.6750 0.2400 0.2900
v 0.6750 0.2400 0.2900
v 0.6750 0.2400 0.2900
v 0.6750 0.2400 0.2900
v 0.8222 0.1750 0.2900
v 0.7486 0.1750 0.3912
v 0.6014 0.1750 0.3912
v 0.5278 0.1750 0.2900
v 0.6014 0.1750 0.1887
v 0.7486 0.1750 0.1887
v 0.8222 0.0450 0.2900
v 0.7486 0.0450 0.3912
v 0.6014 0.0450 0.3912
v 0.5278 0.0450 0.2900
v 0.6014 0.0450 0.1887
v 0.7486 0.0450 0.1887
v 0.6750 -0.0200 0.2900
v 0.6750 -0.0200 0.2900
v 0.6750 -0.0200 0.2900
v 0.6750 -0.0200 0.2900
v 0.6750 -0.0200 0.2900
v 0.6750 -0.0200 0.2900
f 833 839 840
f 833 840 834
f 834 840 841
f 834 841 835
f 835 841 842
f 835 842 836
f 836 842 843
f 836 843 837
f 837 843 844
f 837 844 838
f 838 844 839
f 838 839 833
f 839 845 846
f 839 846 840
f 840 846 847
f 840 847 841
f 841 847 848
f 841 848 842
f 842 848 849
f 842 849 843
f 843 849 850
f 843 850 844
f 844 850 845
f 844 845 839
f 845 851 852
f 845 852 846
f 846 852 853
f 846 853 847
f 847 853 854
f 847 854 848
f 848 854 855
f 848 855 849
f 849 855 856
f 849 856 850
f 850 856 851
f 850 851 845
o tail
usemtl dark
v -0.9478 2.0415 0.0000
v -0.9478 2.0415 0.0000
v -0.9478 2.0415 0.0000
v -0.9478 2.0415 0.0000
v -0.9478 2.0415 0.0000
v -0.9478 2.0415 0.0000
v -0.9478 2.0415 0.0000
v -0.9478 2.0415 0.0000
v -0.9141 1.8882 0.0000
v -0.9380 1.8978 0.0707
v -0.9959 1.9209 0.0999
v -1.0538 1.9440 0.0707
v -1.0778 1.9536 0.0000
v -1.0538 1.9440 -0.0707
v -0.9959 1.9209 -0.0999
v -0.9380 1.8978 -0.0707
v -0.9896 1.5522 0.0000
v -1.0284 1.5677 0.1143
v -1.1221 1.6051 0.1617
v -1.2157 1.6426 0.1143
v -1.2545 1.6581 0.0000
v -1.2157 1.6426 -0.1143
v -1.1221 1.6051 -0.1617
v -1.0284 1.5677 -0.1143
v -1.1455 1.1619 0.0000
v -1.1843 1.1774 0.1143
v -1.2779 1.2149 0.1617
v -1.3716 1.2523 0.1143
v -1.4104 1.2678 0.0000
v -1.3716 1.2523 -0.1143
v -1.2779 1.2149 -0.1617
v -1.1843 1.1774 -0.1143
v -1.3222 0.8664 0.0000
v -1.3462 0.8760 0.0707
v -1.4041 0.8991 0.0999
v -1.4620 0.9222 0.0707
v -1.4859 0.9318 0.0000
v -1.4620 0.9222 -0.0707
v -1.4041 0.8991 -0.0999
v -1.3462 0.8760 -0.0707
v -1.4522 0.7785 0.0000
v -1.4522 0.7785 0.0000
v -1.4522 0.7785 0.0000
v -1.4522 0.7785 0.0000
v -1.4522 0.7785 0.0000
v -1.4522 0.7785 -0.0000
v -1.4522 0.7785 -0.0000
v -1.4522 0.7785 -0.0000
f 857 865 866
f 857 866 858
f 858 866 867
f 858 867 859
f 859 867 868
f 859 868 860
f 860 868 869
f 860 869 861
f 861 869 870
f 861 870 862
f 862 870 871
f 862 871 863
f 863 871 872
f 863 872 864
f 864 872 865
f 864 865 857
f 865 873 874
f 865 874 866
f 866 874 875
f 866 875 867
f 867 875 876
f 867 876 868
f 868 876 877
f 868 877 869
f 869 877 878
f 869 878 870
f 870 878 879
f 870 879 871
f 871 879 880
f 871 880 872
f 872 880 873
f 872 873 865
f 873 881 882
f 873 882 874
f 874 882 883
f 874 883 875
f 875 883 884
f 875 884 876
f 876 884 885
f 876 885 877
f 877 885 886
f 877 886 878
f 878 886 887
f 878 887 879
f 879 887 888
f 879 888 880
f 880 888 881
f 880 881 873
f 881 889 890
f 881 890 882
f 882 890 891
f 882 891 883
f 883 891 892
f 883 892 884
f 884 892 893
f 884 893 885
f 885 893 894
f 885 894 886
f 886 894 895
f 886 895 887
f 887 895 896
f 887 896 888
f 888 896 889
f 888 889 881
f 889 897 898
f 889 898 890
f 890 898 899
f 890 899 891
f 891 899 900
f 891 900 892
f 892 900 901
f 892 901 893
f 893 901 902
f 893 902 894
f 894 902 903
f 894 903 895
f 895 903 904
f 895 904 896
f 896 904 897
f 896 897 889
